PathFileType	4	(X/Y/Z)	TVC_60_Cal_03_0_static_RCNL2025.trc
DataRate	CameraRate	NumFrames	NumMarkers	Units	OrigDataRate	OrigDataStartFrame	OrigNumFrames
100	100	8	27	mm	100	266	354
Frame#	Time	R_Shoulder			L_Shoulder			C7			J_Notch			R_Elbow			L_Elbow			R_Wrist			L_Wrist			R_Asis			L_Asis			R_Psis			L_Psis			Sacral			Thoracic			Sternum			R_Thigh_Lateral			R_Knee_Lateral			R_Shank_Lateral			R_Ankle_Lateral			R_Heel			R_Toe			L_Thigh_Lateral			L_Knee_Lateral			L_Shank_Lateral			L_Ankle_Lateral			L_Heel			L_Toe		
		X1	Y1	Z1	X2	Y2	Z2	X3	Y3	Z3	X4	Y4	Z4	X5	Y5	Z5	X6	Y6	Z6	X7	Y7	Z7	X8	Y8	Z8	X9	Y9	Z9	X10	Y10	Z10	X11	Y11	Z11	X12	Y12	Z12	X13	Y13	Z13	X14	Y14	Z14	X15	Y15	Z15	X16	Y16	Z16	X17	Y17	Z17	X18	Y18	Z18	X19	Y19	Z19	X20	Y20	Z20	X21	Y21	Z21	X22	Y22	Z22	X23	Y23	Z23	X24	Y24	Z24	X25	Y25	Z25	X26	Y26	Z26	X27	Y27	Z27
266	2.65000000	-257.375824	1340.944702	-22.797537	-304.211945	1354.885986	-367.390900	-331.651764	1404.280640	-192.581711	-208.354919	1287.029175	-207.706757	-292.220032	997.922302	36.100540	-336.793579	1005.821289	-408.767914	-221.606613	781.701599	93.094330	-240.310585	796.587677	-457.149033	NaN	NaN	NaN	-210.217087	921.222656	-350.738190	-355.912689	909.939514	-123.607880	-372.469818	910.610718	-232.003342	-364.191254	910.275116	-177.805611	-360.829315	1187.058716	-187.130493	-156.397476	1096.620361	-207.304825	-204.577744	599.957947	-1.038269	-235.088303	444.129150	-77.880913	-276.830627	229.342468	-40.773232	-329.199921	64.343422	-113.719154	-371.999023	59.489246	-161.931595	-199.957413	42.844025	-119.024643	-257.508820	633.164185	-402.734650	-245.074875	443.268005	-322.224457	-295.123627	256.651794	-355.199982	-332.887390	60.931095	-277.657288	-376.151520	62.282471	-234.333557	-205.861343	43.485600	-271.349640
267	2.66000000	-257.331879	1340.711304	-22.172157	-304.092987	1354.907593	-366.949738	-331.691162	1404.144287	-192.070419	-208.346268	1287.155273	-207.308121	-292.179504	997.733032	36.307457	-336.715668	1005.988220	-408.341614	-221.819489	781.514160	93.154434	-240.258507	796.614471	-456.941635	NaN	NaN	NaN	-210.257202	921.298950	-350.402832	-355.896545	909.876343	-123.328430	-372.437012	910.533997	-231.684174	-364.166779	910.205170	-177.506302	-360.788757	1187.026855	-186.701645	-156.260437	1096.345459	-206.783173	-204.371964	600.078308	-0.902113	-235.153275	444.164001	-77.686005	-276.902344	229.173141	-40.581627	-329.218536	64.263931	-113.754128	-371.910309	59.428722	-161.834030	-199.984909	42.860466	-119.081375	-257.625183	633.268250	-402.365692	-245.247696	443.389984	-322.445618	-295.172394	256.740601	-355.227753	-332.823425	60.951767	-277.689331	-376.100067	62.272243	-234.386368	-205.888260	43.437023	-271.496429
268	2.67000000	-257.144470	1340.655762	-21.759621	-304.126251	1354.900391	-366.476624	-331.646240	1404.112427	-191.520645	-208.515808	1287.341064	-206.735825	-292.279510	997.809387	36.657646	-336.688751	1006.045776	-407.883606	-222.176971	781.298706	93.374153	-240.327278	796.751984	-456.772369	NaN	NaN	NaN	-210.323074	921.263550	-349.986176	-355.819794	909.813843	-123.097366	-372.395874	910.595459	-231.393616	-364.107834	910.204651	-177.245491	-360.808685	1186.988892	-186.178696	-156.285736	1096.319214	-206.518188	-204.552383	599.737793	-0.737730	-235.478348	444.320740	-77.389503	-277.005585	229.253830	-40.368397	-329.249847	64.374664	-113.636253	-371.956024	59.526939	-161.871765	-199.982346	42.859364	-119.062904	-257.613129	633.654968	-402.054138	-245.324585	443.404602	-322.314667	-295.164856	256.784210	-355.192749	-332.860016	60.961750	-277.722748	-376.040344	62.311348	-234.342728	-205.876083	43.426048	-271.427368
269	2.68000000	-257.289734	1340.658081	-21.135639	-304.134369	1354.998535	-365.776001	-331.644897	1403.985229	-190.955994	-208.579376	1287.265137	-206.123413	-292.624481	997.811279	37.044254	-336.673157	1006.203552	-407.514679	-222.428436	781.075989	93.560661	-240.100021	796.892639	-456.332153	NaN	NaN	NaN	-210.339417	921.328369	-349.832550	-355.893646	909.785278	-122.817986	-372.444000	910.586060	-231.098618	-364.168823	910.185669	-176.958302	-360.866211	1186.890625	-185.748352	-156.341873	1096.338867	-206.155228	-204.637482	599.587646	-0.503436	-235.528183	444.268036	-77.155014	-276.886047	229.257568	-40.329121	-329.273773	64.300858	-113.679962	-371.961578	59.516109	-161.789078	-199.935028	42.888580	-119.069374	-257.577637	633.673401	-401.840302	-245.277740	443.373871	-322.287445	-295.203857	256.878021	-355.095154	-332.874969	60.981609	-277.705261	-376.112152	62.279003	-234.387482	-205.891800	43.459839	-271.480164
270	2.69000000	-256.990967	1340.485474	-20.781307	-304.268341	1355.048828	-365.223114	-331.626648	1403.922485	-190.255920	-208.760193	1287.135742	-205.297714	-292.624756	997.735413	37.277237	-336.802246	1006.239746	-407.124146	-222.719666	780.850769	93.669533	-240.156387	796.982666	-456.003433	NaN	NaN	NaN	-210.587677	921.460449	-349.430664	-355.793671	909.658142	-122.615067	-372.501526	910.495117	-230.780167	-364.147598	910.076630	-176.697617	-360.878143	1186.864136	-185.294022	-156.408020	1096.334351	-205.774078	-204.805954	599.528076	-0.336629	-235.568207	444.310577	-77.051010	-276.932434	229.158279	-40.095974	-329.284607	64.195465	-113.590088	-371.974670	59.475048	-161.675842	-199.981766	42.792542	-119.036697	-257.639618	633.767517	-401.776276	-245.320862	443.452454	-322.080872	-295.199768	256.857758	-354.969299	-332.823578	61.003651	-277.683533	-375.989288	62.255795	-234.287994	-205.929932	43.433846	-271.435028
271	2.70000000	-256.889221	1340.430054	-20.221451	-304.361115	1355.101074	-364.676300	-331.872803	1404.157104	-189.439957	-208.634567	1286.811279	-205.150879	-292.807465	997.704285	37.545353	-336.807556	1006.358093	-406.803467	-223.047852	780.719238	93.787796	-240.166374	797.028198	-455.729904	NaN	NaN	NaN	-210.696442	921.494751	-349.260284	-355.750305	909.570618	-122.253952	-372.525818	910.459290	-230.391632	-364.138062	910.014954	-176.322792	-360.986176	1186.955688	-184.761658	-156.342285	1096.265259	-205.485977	-204.567627	599.597168	-0.187830	-235.592316	444.251770	-76.905640	-276.850983	229.202621	-39.972649	-329.280670	64.182274	-113.542084	-372.002045	59.407475	-161.677155	-199.984894	42.780853	-119.027771	-257.582703	633.813049	-401.606995	-245.233475	443.463074	-321.956696	-295.317749	256.943207	-354.989227	-332.793579	60.966610	-277.665894	-376.001648	62.279911	-234.381622	-205.877777	43.424316	-271.377228
272	2.71000000	-256.790649	1340.438965	-19.785437	-304.475464	1355.199707	-364.163849	-331.764801	1404.194580	-188.831955	-208.693726	1286.973022	-204.256165	-293.008911	997.652466	37.769711	-336.818542	1006.476562	-406.418732	-223.397049	780.414612	93.887497	-240.162743	797.186798	-455.505020	NaN	NaN	NaN	-210.892334	921.619629	-349.073883	-355.716675	909.481812	-122.092552	-372.524963	910.506287	-230.185852	-364.120819	909.994049	-176.139202	-361.017303	1187.157471	-184.224869	-156.527649	1096.425781	-205.359192	-204.614059	599.529968	-0.045621	-235.458725	444.163849	-76.809799	-276.801331	229.084000	-39.879913	-329.264557	64.179352	-113.533028	-371.966858	59.457150	-161.682236	-200.014435	42.812168	-119.021652	-257.667908	633.866028	-401.504974	-245.230042	443.556305	-321.963501	-295.297943	257.014587	-354.870605	-332.896912	61.018311	-277.720367	-376.005249	62.304405	-234.383286	-205.818039	43.476353	-271.429749
273	2.72000000	-256.705505	1340.278564	-19.303123	-304.578217	1355.191406	-363.749420	-331.983917	1404.390625	-188.110031	-208.854263	1286.988525	-203.821136	-293.131165	997.563538	38.040192	-336.924988	1006.545227	-406.114471	-223.933792	780.314819	93.946236	-240.167656	797.353302	-455.173492	NaN	NaN	NaN	-210.850052	921.675293	-348.848328	-355.839539	909.454285	-121.739220	-372.597717	910.493042	-229.909958	-364.218628	909.973663	-175.824589	-361.017822	1187.219849	-183.732376	-156.451218	1096.374390	-204.769730	-204.408752	599.541870	0.079126	-235.556885	444.208588	-76.637848	-276.710388	229.032578	-39.841541	-329.191437	64.159485	-113.510826	-371.952179	59.504829	-161.621735	-199.855927	42.739445	-119.026947	-257.686890	633.914734	-401.479706	-245.045639	443.574158	-321.759674	-295.258087	257.100739	-354.788086	-332.789276	61.056412	-277.729919	-375.960327	62.348381	-234.314713	-205.887619	43.409573	-271.501587
